<svg version="1.1" viewBox="0.0 0.0 781.9343832020998 727.7874015748032" fill="none" stroke="none" stroke-linecap="square" stroke-miterlimit="10" xmlns:xlink="http://www.w3.org/1999/xlink" xmlns="http://www.w3.org/2000/svg"><clipPath id="p.0"><path d="m0 0l781.9344 0l0 727.7874l-781.9344 0l0 -727.7874z" clip-rule="nonzero"/></clipPath><g clip-path="url(#p.0)"><path fill="#f3f3f3" d="m0 0l781.9344 0l0 727.7874l-781.9344 0z" fill-rule="evenodd"/><path shape-rendering="crispEdges" fill="#000000" d="m207.89764 77.28871l40.194214 0l0 61.06299l-40.194214 0l0 -61.06299z" fill-rule="nonzero"/><path shape-rendering="crispEdges" fill="#000000" d="m207.89764 138.3517l40.194214 0l0 61.063004l-40.194214 0l0 -61.063004z" fill-rule="nonzero"/><path shape-rendering="crispEdges" fill="#000000" d="m207.89764 199.4147l40.194214 0l0 61.06299l-40.194214 0l0 -61.06299z" fill-rule="nonzero"/><path shape-rendering="crispEdges" fill="#a4c2f4" d="m248.09186 199.4147l343.91602 0l0 61.06299l-343.91602 0l0 -61.06299z" fill-rule="nonzero"/><path shape-rendering="crispEdges" fill="#000000" d="m592.0079 199.4147l40.194214 0l0 61.06299l-40.194214 0l0 -61.06299z" fill-rule="nonzero"/><path shape-rendering="crispEdges" fill="#000000" d="m207.89764 260.4777l40.194214 0l0 61.06299l-40.194214 0l0 -61.06299z" fill-rule="nonzero"/><path shape-rendering="crispEdges" fill="#a4c2f4" d="m248.09186 260.4777l343.91602 0l0 61.06299l-343.91602 0l0 -61.06299z" fill-rule="nonzero"/><path shape-rendering="crispEdges" fill="#000000" d="m592.0079 260.4777l40.194214 0l0 61.06299l-40.194214 0l0 -61.06299z" fill-rule="nonzero"/><path shape-rendering="crispEdges" fill="#000000" d="m207.89764 321.54068l40.194214 0l0 61.06299l-40.194214 0l0 -61.06299z" fill-rule="nonzero"/><path shape-rendering="crispEdges" fill="#a4c2f4" d="m248.09186 321.54068l87.84253 0l0 61.06299l-87.84253 0l0 -61.06299z" fill-rule="nonzero"/><path shape-rendering="crispEdges" fill="#0b5394" d="m335.9344 321.54068l40.194214 0l0 61.06299l-40.194214 0l0 -61.06299z" fill-rule="nonzero"/><path shape-rendering="crispEdges" fill="#a4c2f4" d="m376.1286 321.54068l215.87927 0l0 61.06299l-215.87927 0l0 -61.06299z" fill-rule="nonzero"/><path shape-rendering="crispEdges" fill="#000000" d="m592.0079 321.54068l40.194214 0l0 61.06299l-40.194214 0l0 -61.06299z" fill-rule="nonzero"/><path shape-rendering="crispEdges" fill="#000000" d="m207.89764 382.60367l40.194214 0l0 61.06299l-40.194214 0l0 -61.06299z" fill-rule="nonzero"/><path shape-rendering="crispEdges" fill="#a4c2f4" d="m248.09186 382.60367l87.84253 0l0 61.06299l-87.84253 0l0 -61.06299z" fill-rule="nonzero"/><path shape-rendering="crispEdges" fill="#0b5394" d="m335.9344 382.60367l40.194214 0l0 61.06299l-40.194214 0l0 -61.06299z" fill-rule="nonzero"/><path shape-rendering="crispEdges" fill="#a4c2f4" d="m376.1286 382.60367l215.87927 0l0 61.06299l-215.87927 0l0 -61.06299z" fill-rule="nonzero"/><path shape-rendering="crispEdges" fill="#000000" d="m592.0079 382.60367l40.194214 0l0 61.06299l-40.194214 0l0 -61.06299z" fill-rule="nonzero"/><path shape-rendering="crispEdges" fill="#000000" d="m720.0446 382.60367l40.194214 0l0 61.06299l-40.194214 0l0 -61.06299z" fill-rule="nonzero"/><path shape-rendering="crispEdges" fill="#000000" d="m207.89764 443.66666l40.194214 0l0 61.06299l-40.194214 0l0 -61.06299z" fill-rule="nonzero"/><path shape-rendering="crispEdges" fill="#a4c2f4" d="m248.09186 443.66666l87.84253 0l0 61.06299l-87.84253 0l0 -61.06299z" fill-rule="nonzero"/><path shape-rendering="crispEdges" fill="#0b5394" d="m335.9344 443.66666l40.194214 0l0 61.06299l-40.194214 0l0 -61.06299z" fill-rule="nonzero"/><path shape-rendering="crispEdges" fill="#a4c2f4" d="m376.1286 443.66666l215.87927 0l0 61.06299l-215.87927 0l0 -61.06299z" fill-rule="nonzero"/><path shape-rendering="crispEdges" fill="#000000" d="m592.0079 443.66666l40.194214 0l0 61.06299l-40.194214 0l0 -61.06299z" fill-rule="nonzero"/><path shape-rendering="crispEdges" fill="#000000" d="m720.0446 443.66666l40.194214 0l0 61.06299l-40.194214 0l0 -61.06299z" fill-rule="nonzero"/><path shape-rendering="crispEdges" fill="#000000" d="m207.89764 504.72964l40.194214 0l0 61.06302l-40.194214 0l0 -61.06302z" fill-rule="nonzero"/><path shape-rendering="crispEdges" fill="#a4c2f4" d="m248.09186 504.72964l87.84253 0l0 61.06302l-87.84253 0l0 -61.06302z" fill-rule="nonzero"/><path shape-rendering="crispEdges" fill="#0b5394" d="m335.9344 504.72964l40.194214 0l0 61.06302l-40.194214 0l0 -61.06302z" fill-rule="nonzero"/><path shape-rendering="crispEdges" fill="#a4c2f4" d="m376.1286 504.72964l87.84253 0l0 61.06302l-87.84253 0l0 -61.06302z" fill-rule="nonzero"/><path shape-rendering="crispEdges" fill="#0b5394" d="m463.97113 504.72964l40.194214 0l0 61.06302l-40.194214 0l0 -61.06302z" fill-rule="nonzero"/><path shape-rendering="crispEdges" fill="#a4c2f4" d="m504.16534 504.72964l87.84253 0l0 61.06302l-87.84253 0l0 -61.06302z" fill-rule="nonzero"/><path shape-rendering="crispEdges" fill="#000000" d="m592.0079 504.72964l40.194214 0l0 61.06302l-40.194214 0l0 -61.06302z" fill-rule="nonzero"/><path shape-rendering="crispEdges" fill="#000000" d="m720.0446 504.72964l40.194214 0l0 61.06302l-40.194214 0l0 -61.06302z" fill-rule="nonzero"/><path shape-rendering="crispEdges" fill="#000000" d="m79.86089 565.79266l40.19422 0l0 61.06299l-40.19422 0l0 -61.06299z" fill-rule="nonzero"/><path shape-rendering="crispEdges" fill="#000000" d="m207.89764 565.79266l40.194214 0l0 61.06299l-40.194214 0l0 -61.06299z" fill-rule="nonzero"/><path shape-rendering="crispEdges" fill="#a4c2f4" d="m248.09186 565.79266l87.84253 0l0 61.06299l-87.84253 0l0 -61.06299z" fill-rule="nonzero"/><path shape-rendering="crispEdges" fill="#0b5394" d="m335.9344 565.79266l40.194214 0l0 61.06299l-40.194214 0l0 -61.06299z" fill-rule="nonzero"/><path shape-rendering="crispEdges" fill="#a4c2f4" d="m376.1286 565.79266l87.84253 0l0 61.06299l-87.84253 0l0 -61.06299z" fill-rule="nonzero"/><path shape-rendering="crispEdges" fill="#0b5394" d="m463.97113 565.79266l40.194214 0l0 61.06299l-40.194214 0l0 -61.06299z" fill-rule="nonzero"/><path shape-rendering="crispEdges" fill="#a4c2f4" d="m504.16534 565.79266l87.84253 0l0 61.06299l-87.84253 0l0 -61.06299z" fill-rule="nonzero"/><path shape-rendering="crispEdges" fill="#000000" d="m592.0079 565.79266l40.194214 0l0 61.06299l-40.194214 0l0 -61.06299z" fill-rule="nonzero"/><path shape-rendering="crispEdges" fill="#000000" d="m720.0446 565.79266l40.194214 0l0 61.06299l-40.194214 0l0 -61.06299z" fill-rule="nonzero"/><path shape-rendering="crispEdges" fill="#000000" d="m79.86089 626.85565l40.19422 0l0 61.06299l-40.19422 0l0 -61.06299z" fill-rule="nonzero"/><path shape-rendering="crispEdges" fill="#000000" d="m207.89764 626.85565l40.194214 0l0 61.06299l-40.194214 0l0 -61.06299z" fill-rule="nonzero"/><path shape-rendering="crispEdges" fill="#a4c2f4" d="m248.09186 626.85565l87.84253 0l0 61.06299l-87.84253 0l0 -61.06299z" fill-rule="nonzero"/><path shape-rendering="crispEdges" fill="#0b5394" d="m335.9344 626.85565l40.194214 0l0 61.06299l-40.194214 0l0 -61.06299z" fill-rule="nonzero"/><path shape-rendering="crispEdges" fill="#a4c2f4" d="m376.1286 626.85565l87.84253 0l0 61.06299l-87.84253 0l0 -61.06299z" fill-rule="nonzero"/><path shape-rendering="crispEdges" fill="#0b5394" d="m463.97113 626.85565l40.194214 0l0 61.06299l-40.194214 0l0 -61.06299z" fill-rule="nonzero"/><path shape-rendering="crispEdges" fill="#a4c2f4" d="m504.16534 626.85565l87.84253 0l0 61.06299l-87.84253 0l0 -61.06299z" fill-rule="nonzero"/><path shape-rendering="crispEdges" fill="#000000" d="m592.0079 626.85565l40.194214 0l0 61.06299l-40.194214 0l0 -61.06299z" fill-rule="nonzero"/><path shape-rendering="crispEdges" fill="#000000" d="m720.0446 626.85565l40.194214 0l0 61.06299l-40.194214 0l0 -61.06299z" fill-rule="nonzero"/><path shape-rendering="crispEdges" fill="#000000" d="m79.86089 687.91864l680.3779 0l0 26.409424l-680.3779 0l0 -26.409424z" fill-rule="nonzero"/><path stroke="#9e9e9e" stroke-width="1.0" stroke-linecap="butt" d="m15.84252 15.727035l0 699.09973" fill-rule="nonzero"/><path stroke="#9e9e9e" stroke-width="1.0" stroke-linecap="butt" d="m79.86089 15.727035l0 699.09973" fill-rule="nonzero"/><path stroke="#9e9e9e" stroke-width="1.0" stroke-linecap="butt" d="m120.055115 565.29395l0 123.12335" fill-rule="nonzero"/><path stroke="#9e9e9e" stroke-width="1.0" stroke-linecap="butt" d="m207.89764 76.79002l0 611.62726" fill-rule="nonzero"/><path stroke="#9e9e9e" stroke-width="1.0" stroke-linecap="butt" d="m248.09186 76.79002l0 611.62726" fill-rule="nonzero"/><path stroke="#9e9e9e" stroke-width="1.0" stroke-linecap="butt" d="m335.9344 321.042l0 367.3753" fill-rule="nonzero"/><path stroke="#9e9e9e" stroke-width="1.0" stroke-linecap="butt" d="m376.1286 321.042l0 367.3753" fill-rule="nonzero"/><path stroke="#9e9e9e" stroke-width="1.0" stroke-linecap="butt" d="m463.97113 504.23096l0 184.18634" fill-rule="nonzero"/><path stroke="#9e9e9e" stroke-width="1.0" stroke-linecap="butt" d="m504.16534 504.23096l0 184.18634" fill-rule="nonzero"/><path stroke="#9e9e9e" stroke-width="1.0" stroke-linecap="butt" d="m592.0079 198.91602l0 489.50128" fill-rule="nonzero"/><path stroke="#9e9e9e" stroke-width="1.0" stroke-linecap="butt" d="m632.2021 198.91602l0 489.50128" fill-rule="nonzero"/><path stroke="#9e9e9e" stroke-width="1.0" stroke-linecap="butt" d="m720.0446 382.10498l0 306.31232" fill-rule="nonzero"/><path stroke="#9e9e9e" stroke-width="1.0" stroke-linecap="butt" d="m760.23883 15.727035l0 699.09973" fill-rule="nonzero"/><path stroke="#9e9e9e" stroke-width="1.0" stroke-linecap="butt" d="m15.343832 16.225721l745.39374 0" fill-rule="nonzero"/><path stroke="#9e9e9e" stroke-width="1.0" stroke-linecap="butt" d="m15.343832 77.28871l745.39374 0" fill-rule="nonzero"/><path stroke="#9e9e9e" stroke-width="1.0" stroke-linecap="butt" d="m15.343832 138.3517l745.39374 0" fill-rule="nonzero"/><path stroke="#9e9e9e" stroke-width="1.0" stroke-linecap="butt" d="m15.343832 199.4147l745.39374 0" fill-rule="nonzero"/><path stroke="#9e9e9e" stroke-width="1.0" stroke-linecap="butt" d="m15.343832 260.4777l745.39374 0" fill-rule="nonzero"/><path stroke="#9e9e9e" stroke-width="1.0" stroke-linecap="butt" d="m15.343832 321.54068l745.39374 0" fill-rule="nonzero"/><path stroke="#9e9e9e" stroke-width="1.0" stroke-linecap="butt" d="m15.343832 382.60367l745.39374 0" fill-rule="nonzero"/><path stroke="#9e9e9e" stroke-width="1.0" stroke-linecap="butt" d="m15.343832 443.66666l745.39374 0" fill-rule="nonzero"/><path stroke="#9e9e9e" stroke-width="1.0" stroke-linecap="butt" d="m15.343832 504.72964l745.39374 0" fill-rule="nonzero"/><path stroke="#9e9e9e" stroke-width="1.0" stroke-linecap="butt" d="m15.343832 565.79266l745.39374 0" fill-rule="nonzero"/><path stroke="#9e9e9e" stroke-width="1.0" stroke-linecap="butt" d="m15.343832 626.85565l745.39374 0" fill-rule="nonzero"/><path stroke="#9e9e9e" stroke-width="1.0" stroke-linecap="butt" d="m15.343832 687.91864l745.39374 0" fill-rule="nonzero"/><path stroke="#9e9e9e" stroke-width="1.0" stroke-linecap="butt" d="m15.343832 714.32806l745.39374 0" fill-rule="nonzero"/><path fill="#000000" d="m45.121822 53.47722l-1.640625 0l0 -10.453125q-0.59375 0.5625 -1.5625 1.140625q-0.953125 0.5625 -1.71875 0.84375l0 -1.59375q1.375 -0.640625 2.40625 -1.5625q1.03125 -0.921875 1.453125 -1.78125l1.0625 0l0 13.40625zm8.990295 0l-1.640625 0l0 -10.453125q-0.59375 0.5625 -1.5625 1.140625q-0.953125 0.5625 -1.71875 0.84375l0 -1.59375q1.375 -0.640625 2.40625 -1.5625q1.03125 -0.921875 1.453125 -1.78125l1.0625 0l0 13.40625z" fill-rule="nonzero"/><path fill="#000000" d="m44.42911 114.54021l-1.640625 0l0 -10.453125q-0.59375 0.5625 -1.5625 1.140625q-0.953125 0.5625 -1.71875 0.84375l0 -1.59375q1.375 -0.640625 2.40625 -1.5625q1.03125 -0.921875 1.453125 -1.78125l1.0625 0l0 13.40625zm4.203842 -6.59375q0 -2.359375 0.484375 -3.796875q0.484375 -1.453125 1.4375 -2.234375q0.96875 -0.78125 2.421875 -0.78125q1.078125 0 1.890625 0.4375q0.8125 0.421875 1.328125 1.25q0.53125 0.8125 0.828125 1.984375q0.3125 1.15625 0.3125 3.140625q0 2.359375 -0.484375 3.8125q-0.484375 1.4375 -1.453125 2.234375q-0.953125 0.78125 -2.421875 0.78125q-1.921875 0 -3.03125 -1.390625q-1.3125 -1.671875 -1.3125 -5.4375zm1.671875 0q0 3.296875 0.765625 4.390625q0.78125 1.078125 1.90625 1.078125q1.140625 0 1.90625 -1.09375q0.765625 -1.09375 0.765625 -4.375q0 -3.296875 -0.765625 -4.375q-0.765625 -1.078125 -1.921875 -1.078125q-1.125 0 -1.796875 0.953125q-0.859375 1.21875 -0.859375 4.5z" fill-rule="nonzero"/><path fill="#000000" d="m43.67947 172.50945l1.578125 -0.140625q0.203125 1.109375 0.765625 1.609375q0.5625 0.5 1.453125 0.5q0.75 0 1.3125 -0.34375q0.578125 -0.34375 0.9375 -0.921875q0.375 -0.578125 0.609375 -1.5625q0.25 -0.984375 0.25 -2.0q0 -0.109375 0 -0.328125q-0.5 0.78125 -1.359375 1.265625q-0.84375 0.484375 -1.828125 0.484375q-1.671875 0 -2.8125 -1.203125q-1.140625 -1.203125 -1.140625 -3.171875q0 -2.03125 1.1875 -3.265625q1.203125 -1.234375 3.0 -1.234375q1.3125 0 2.390625 0.703125q1.078125 0.703125 1.640625 2.0q0.5625 1.296875 0.5625 3.75q0 2.5625 -0.5625 4.078125q-0.5625 1.515625 -1.65625 2.3125q-1.09375 0.796875 -2.578125 0.796875q-1.5625 0 -2.5625 -0.875q-0.984375 -0.875 -1.1875 -2.453125zm6.71875 -5.890625q0 -1.40625 -0.75 -2.234375q-0.75 -0.828125 -1.8125 -0.828125q-1.09375 0 -1.90625 0.890625q-0.8125 0.890625 -0.8125 2.3125q0 1.28125 0.765625 2.078125q0.78125 0.796875 1.90625 0.796875q1.140625 0 1.875 -0.796875q0.734375 -0.796875 0.734375 -2.21875z" fill-rule="nonzero"/><path fill="#000000" d="m45.96072 229.43182q-1.015625 -0.375 -1.515625 -1.0625q-0.484375 -0.703125 -0.484375 -1.671875q0 -1.453125 1.046875 -2.4375q1.046875 -1.0 2.78125 -1.0q1.75 0 2.8125 1.015625q1.078125 1.015625 1.078125 2.46875q0 0.9375 -0.5 1.625q-0.484375 0.6875 -1.46875 1.0625q1.21875 0.390625 1.859375 1.28125q0.65625 0.890625 0.65625 2.140625q0 1.703125 -1.21875 2.875q-1.21875 1.171875 -3.1875 1.171875q-1.984375 0 -3.203125 -1.171875q-1.203125 -1.171875 -1.203125 -2.921875q0 -1.3125 0.65625 -2.1875q0.671875 -0.875 1.890625 -1.1875zm-0.328125 -2.78125q0 0.9375 0.609375 1.546875q0.609375 0.59375 1.59375 0.59375q0.9375 0 1.546875 -0.59375q0.609375 -0.59375 0.609375 -1.453125q0 -0.90625 -0.625 -1.515625q-0.625 -0.625 -1.5625 -0.625q-0.9375 0 -1.5625 0.609375q-0.609375 0.59375 -0.609375 1.4375zm-0.53125 6.15625q0 0.703125 0.328125 1.359375q0.34375 0.65625 1.0 1.015625q0.65625 0.359375 1.40625 0.359375q1.171875 0 1.9375 -0.75q0.765625 -0.75 0.765625 -1.921875q0 -1.1875 -0.796875 -1.953125q-0.78125 -0.78125 -1.953125 -0.78125q-1.15625 0 -1.921875 0.765625q-0.765625 0.765625 -0.765625 1.90625z" fill-rule="nonzero"/><path fill="#000000" d="m43.55447 286.1198l0 -1.578125l8.640625 0l0 1.28125q-1.28125 1.359375 -2.53125 3.609375q-1.25 2.25 -1.9375 4.625q-0.484375 1.671875 -0.625 3.671875l-1.6875 0q0.03125 -1.578125 0.625 -3.8125q0.59375 -2.234375 1.6875 -4.296875q1.109375 -2.078125 2.359375 -3.5l-6.53125 0z" fill-rule="nonzero"/><path fill="#000000" d="m51.945095 348.71405l-1.625 0.125q-0.21875 -0.96875 -0.625 -1.40625q-0.65625 -0.703125 -1.640625 -0.703125q-0.78125 0 -1.375 0.4375q-0.765625 0.5625 -1.21875 1.65625q-0.453125 1.078125 -0.46875 3.078125q0.59375 -0.890625 1.453125 -1.328125q0.859375 -0.4375 1.796875 -0.4375q1.640625 0 2.78125 1.203125q1.15625 1.203125 1.15625 3.109375q0 1.265625 -0.546875 2.34375q-0.53125 1.078125 -1.484375 1.65625q-0.9375 0.578125 -2.140625 0.578125q-2.0625 0 -3.359375 -1.5q-1.28125 -1.515625 -1.28125 -4.984375q0 -3.875 1.421875 -5.625q1.25 -1.53125 3.375 -1.53125q1.5625 0 2.5625 0.890625q1.015625 0.875 1.21875 2.4375zm-6.6875 5.75q0 0.84375 0.359375 1.625q0.359375 0.765625 1.0 1.171875q0.640625 0.40625 1.359375 0.40625q1.03125 0 1.78125 -0.828125q0.75 -0.84375 0.75 -2.28125q0 -1.390625 -0.734375 -2.1875q-0.734375 -0.796875 -1.859375 -0.796875q-1.109375 0 -1.890625 0.796875q-0.765625 0.796875 -0.765625 2.09375z" fill-rule="nonzero"/><path fill="#000000" d="m43.445095 416.35516l1.71875 -0.140625q0.1875 1.25 0.875 1.890625q0.703125 0.625 1.6875 0.625q1.1875 0 2.0 -0.890625q0.828125 -0.890625 0.828125 -2.359375q0 -1.40625 -0.796875 -2.21875q-0.78125 -0.8125 -2.0625 -0.8125q-0.78125 0 -1.421875 0.359375q-0.640625 0.359375 -1.0 0.9375l-1.546875 -0.203125l1.296875 -6.859375l6.640625 0l0 1.5625l-5.328125 0l-0.71875 3.59375q1.203125 -0.84375 2.515625 -0.84375q1.75 0 2.953125 1.21875q1.203125 1.203125 1.203125 3.109375q0 1.8125 -1.046875 3.140625q-1.296875 1.625 -3.515625 1.625q-1.8125 0 -2.96875 -1.015625q-1.15625 -1.03125 -1.3125 -2.71875z" fill-rule="nonzero"/><path fill="#000000" d="m48.695095 480.91815l0 -3.203125l-5.796875 0l0 -1.5l6.09375 -8.65625l1.34375 0l0 8.65625l1.796875 0l0 1.5l-1.796875 0l0 3.203125l-1.640625 0zm0 -4.703125l0 -6.015625l-4.1875 6.015625l4.1875 0z" fill-rule="nonzero"/><path fill="#000000" d="m43.445095 538.4499l1.640625 -0.21875q0.28125 1.40625 0.953125 2.015625q0.6875 0.609375 1.65625 0.609375q1.15625 0 1.953125 -0.796875q0.796875 -0.796875 0.796875 -1.984375q0 -1.125 -0.734375 -1.859375q-0.734375 -0.734375 -1.875 -0.734375q-0.46875 0 -1.15625 0.171875l0.1875 -1.4375q0.15625 0.015625 0.265625 0.015625q1.046875 0 1.875 -0.546875q0.84375 -0.546875 0.84375 -1.671875q0 -0.90625 -0.609375 -1.5q-0.609375 -0.59375 -1.578125 -0.59375q-0.953125 0 -1.59375 0.609375q-0.640625 0.59375 -0.8125 1.796875l-1.640625 -0.296875q0.296875 -1.640625 1.359375 -2.546875q1.0625 -0.90625 2.65625 -0.90625q1.09375 0 2.0 0.46875q0.921875 0.46875 1.40625 1.28125q0.5 0.8125 0.5 1.71875q0 0.859375 -0.46875 1.578125q-0.46875 0.703125 -1.375 1.125q1.1875 0.28125 1.84375 1.140625q0.65625 0.859375 0.65625 2.15625q0 1.734375 -1.28125 2.953125q-1.265625 1.21875 -3.21875 1.21875q-1.765625 0 -2.921875 -1.046875q-1.15625 -1.046875 -1.328125 -2.71875z" fill-rule="nonzero"/><path fill="#000000" d="m52.05447 601.466l0 1.578125l-8.828125 0q-0.015625 -0.59375 0.1875 -1.140625q0.34375 -0.90625 1.078125 -1.78125q0.75 -0.875 2.15625 -2.015625q2.171875 -1.78125 2.9375 -2.828125q0.765625 -1.046875 0.765625 -1.96875q0 -0.984375 -0.703125 -1.640625q-0.6875 -0.671875 -1.8125 -0.671875q-1.1875 0 -1.90625 0.71875q-0.703125 0.703125 -0.703125 1.953125l-1.6875 -0.171875q0.171875 -1.890625 1.296875 -2.875q1.140625 -0.984375 3.03125 -0.984375q1.921875 0 3.046875 1.0625q1.125 1.0625 1.125 2.640625q0 0.796875 -0.328125 1.578125q-0.328125 0.78125 -1.09375 1.640625q-0.75 0.84375 -2.53125 2.34375q-1.46875 1.234375 -1.890625 1.6875q-0.421875 0.4375 -0.6875 0.875l6.546875 0z" fill-rule="nonzero"/><path fill="#000000" d="m49.61697 664.1071l-1.640625 0l0 -10.453125q-0.59375 0.5625 -1.5625 1.140625q-0.953125 0.5625 -1.71875 0.84375l0 -1.59375q1.375 -0.640625 2.40625 -1.5625q1.03125 -0.921875 1.453125 -1.78125l1.0625 0l0 13.40625z" fill-rule="nonzero"/><path fill="#000000" d="m43.445095 701.24963q0 -2.359375 0.484375 -3.796875q0.484375 -1.453125 1.4375 -2.234375q0.96875 -0.78125 2.421875 -0.78125q1.078125 0 1.890625 0.4375q0.8125 0.421875 1.328125 1.25q0.53125 0.8125 0.828125 1.984375q0.3125 1.15625 0.3125 3.140625q0 2.359375 -0.484375 3.8125q-0.484375 1.4375 -1.453125 2.234375q-0.953125 0.78125 -2.421875 0.78125q-1.921875 0 -3.03125 -1.390625q-1.3125 -1.671875 -1.3125 -5.4375zm1.671875 0q0 3.296875 0.765625 4.390625q0.78125 1.078125 1.90625 1.078125q1.140625 0 1.90625 -1.09375q0.765625 -1.09375 0.765625 -4.375q0 -3.296875 -0.765625 -4.375q-0.765625 -1.078125 -1.921875 -1.078125q-1.125 0 -1.796875 0.953125q-0.859375 1.21875 -0.859375 4.5z" fill-rule="nonzero"/></g></svg>